<svg xmlns="http://www.w3.org/2000/svg" viewBox="0 0 767.6 177.6"><g id="Layer_2" data-name="Layer 2"><g id="Layer_1-2" data-name="Layer 1"><path d="M546,115.6c-15.4,0-26.4-11.6-26.4-28,0-16.2,11-28,26.4-28s26.4,11.8,26.4,28c0,16.4-11,28-26.4,28m-124.6,0c-15.4,0-26.4-11.6-26.4-28,0-16.2,11-28,26.4-28s26.4,11.8,26.4,28c0,16.4-11,28-26.4,28m-124.6,0c-15.4,0-26.4-11.6-26.4-28,0-16.2,11-28,26.4-28s26.4,11.8,26.4,28c0,16.4-11,28-26.4,28m-127.2,0c-15.4,0-26.4-11.4-26.4-28,0-16.4,11-28,26.4-28C185.2,59.6,196,72,196,88.4c0,16.6-11,27.2-26.4,27.2M572,47.4c-7-10.2-19-15-32.4-15-28.2,0-51.2,24.4-51.2,55.2s23,55.2,51.2,55.2c13.4,0,25.4-4.6,32.4-14.8v12h29.6V35.2H572Zm-144.2-15c-13.4,0-25.4,4.8-32.4,15V35.2H365.8V177.6h30.4V129.2c7.2,9.4,18.6,13.6,31.6,13.6,28.2,0,51.2-24.4,51.2-55.2s-22.8-55.2-51.2-55.2m-124.6,0c-13.4,0-25.4,4.8-32.4,15V35.2H241.2V177.6h30.4V129.2c7.2,9.4,18.6,13.6,31.6,13.6,28.2,0,51.2-24.4,51.2-55.2s-22.8-55.2-51.2-55.2m-107.6,15c-7-10.2-19-15-32.4-15C135,32.4,112,56.8,112,87.6s23,55.2,51.2,55.2c13.4,0,25.4-4.6,32.4-14.8v12h29.6V35.2H195.6ZM767.6,0H737.2V140h30.4ZM678,32.4c-15.6,0-25.6,7.8-30,15.2V0H617.6V140H648V85.2c0-14.8,6.2-25.6,22-25.6s22,10.8,22,25.6V140h30.4V80.8c0-28-15.6-48.4-44.4-48.4M82.6,0l-49,59.2V0H0V140H33.6V79.4l49,60.6h38.8L65,68.6,120.6,0Z"/></g></g></svg>