<svg xmlns="http://www.w3.org/2000/svg" id="Ebene_1" enable-background="new 0 0 160 43.4" viewBox="0 0 160 43.4" x="0px" y="0px" xmlns:xml="http://www.w3.org/XML/1998/namespace" xml:space="preserve" xmlns:xlink="http://www.w3.org/1999/xlink" version="1.1"> <g> <g> <g> <path fill="#77736e" d="M 44.9 0.8 h 5.6 v 11.6 c 0 1.3 -0.1 2.2 -0.4 3 c -1.5 3.5 -7.7 3.8 -11.3 3.8 c -3.7 0 -9.9 -0.3 -11.3 -3.8 c -0.3 -0.8 -0.4 -1.7 -0.4 -3 V 0.8 h 5.6 v 10.5 c 0 1.5 0.6 2.2 1.6 2.5 c 1 0.3 2.7 0.5 4.5 0.5 c 1.8 0 3.5 -0.2 4.5 -0.5 c 1 -0.3 1.6 -1 1.6 -2.5 V 0.8 Z M 113.1 0.8 h 2.9 v 17.7 h -5.5 V 0.8 H 113.1 Z M 101 0.8 h 5.3 v 17.7 h -5.1 L 88.5 7.8 v 10.7 H 83 V 0.8 h 5.5 L 101 11.2 V 0.8 Z M 75.3 1 c 3.6 1.2 3.9 4.2 4 8.6 c 0 4.3 -0.3 7.4 -3.9 8.6 c -1.8 0.6 -4.7 1 -8.7 1 c -4 0 -6.8 -0.4 -8.7 -1 c -3.7 -1.2 -4 -4.2 -3.9 -8.6 c 0 -4.4 0.3 -7.4 4 -8.6 c 1.8 -0.6 4.7 -1 8.7 -1 C 70.6 0 73.4 0.4 75.3 1 M 59.5 9.6 c 0 2.9 0.3 3.9 2.3 4.3 c 1.1 0.2 2.4 0.4 4.8 0.4 c 2.3 0 3.8 -0.2 4.9 -0.4 c 2 -0.4 2.3 -1.4 2.3 -4.3 c 0 -3.4 -0.3 -4.1 -2.3 -4.5 c -1.1 -0.2 -2.5 -0.4 -4.9 -0.4 c -2.3 0 -3.7 0.2 -4.8 0.4 C 59.8 5.6 59.5 6.3 59.5 9.6 M 19.3 12.7 c 0.9 0.6 3 1.6 5.3 1.4 v 4.1 c -0.9 0.3 -2.4 0.3 -2.4 0.3 c -1.6 0 -3.9 -0.4 -6.4 -2 l -6.6 -4.4 L 5.4 15 v 3.5 H 0 V 0.8 h 5.4 v 8.5 l 10.7 -8.5 h 8 L 13.6 9 L 19.3 12.7 Z" /> <path fill="#77736e" d="M 99.5 38.1 c -1.1 0.2 -2.5 0.4 -4.9 0.4 c -2.3 0 -3.7 -0.2 -4.8 -0.4 c -2 -0.4 -2.3 -1.4 -2.3 -4.3 c 0 -3.4 0.3 -4.1 2.3 -4.5 c 1.1 -0.2 2.4 -0.4 4.8 -0.4 c 2.4 0 3.8 0.2 4.9 0.4 c 2 0.4 2.3 1.1 2.3 4.5 C 101.8 36.8 101.5 37.7 99.5 38.1 M 107.3 33.8 c 0 -4.4 -0.3 -7.4 -4 -8.6 c -1.8 -0.6 -4.7 -1 -8.7 -1 c -4 0 -6.8 0.4 -8.7 1 c -3.6 1.2 -3.9 4.2 -4 8.6 c 0 4.3 0.3 7.4 3.9 8.6 c 1.8 0.6 4.7 1 8.7 1 c 4.1 0 6.9 -0.4 8.7 -1 C 107 41.2 107.3 38.2 107.3 33.8" /> <path fill="#77736e" d="M 43.4 33.7 v 3.1 h 3.7 c 0 0 0.2 1.1 -1.2 1.4 c -1.1 0.3 -4 0.4 -6.3 0.4 c -2.3 0 -3.7 -0.2 -4.8 -0.4 c -2 -0.4 -2.3 -1.4 -2.3 -4.3 c 0 -3.4 0.3 -4.1 2.3 -4.5 c 1.1 -0.2 2.4 -0.4 4.8 -0.4 c 2.4 0 4 0 5.1 0.2 c 1.2 0.2 1.8 0.4 2.2 1.8 h 5.3 c -0.2 -2.9 -1.1 -4.9 -3.9 -5.7 c -1.8 -0.6 -4.7 -1 -8.7 -1 c -4 0 -6.8 0.4 -8.7 1 c -3.6 1.2 -3.9 4.2 -4 8.6 c 0 4.3 0.3 7.4 3.9 8.6 c 1.8 0.6 4.7 1 8.7 1 c 4.1 0 6.9 -0.4 8.7 -1 c 3.7 -1.2 3.9 -4.2 3.9 -8.7 H 43.4 Z" /> <path fill="#77736e" d="M 128.4 24.7 h 5.6 v 11.6 c 0 1.3 -0.1 2.2 -0.4 3 c -1.5 3.5 -7.7 3.8 -11.3 3.8 c -3.7 0 -9.9 -0.3 -11.3 -3.8 c -0.3 -0.8 -0.4 -1.7 -0.4 -3 V 24.7 h 5.6 v 10.5 c 0 1.5 0.6 2.2 1.6 2.5 c 1 0.3 2.7 0.5 4.5 0.5 c 1.8 0 3.5 -0.2 4.5 -0.5 c 1 -0.3 1.6 -1 1.6 -2.5 V 24.7 Z" /> <path fill="#77736e" d="M 143.3 29.3 h 8.9 c 1.3 0 2.6 0.1 2.6 2 s -1.1 2.1 -2.5 2.1 h -9.1 V 29.3 Z M 159.9 29.3 c -0.4 -4.6 -4.2 -4.6 -7.5 -4.6 h -14.4 v 8.4 v 4.8 v 4.5 h 5.5 v -4.5 h 8.9 c 3.3 0 7.2 0 7.5 -4.6 C 160.1 31.6 160 29.8 159.9 29.3" /> <path fill="#77736e" d="M 61.7 33.4 v -4.1 h 8.9 c 1.3 0 2.6 0.1 2.6 2 s -1.1 2.1 -2.5 2.1 H 61.7 Z M 76.1 37 c 1.2 -0.6 2 -1.9 2.1 -3.7 c 0.1 -1.8 0 -3.5 0 -4 c -0.4 -4.6 -4.2 -4.6 -7.5 -4.6 H 56.3 v 8.4 v 4.8 v 4.5 h 5.5 v -4.5 h 6.9 c 1 0 1.8 0.1 2.4 0.5 c 2 1.1 2 4.1 2 4.1 h 5.7 C 78.7 42.5 78.9 38.1 76.1 37" /> </g> </g> </g> </svg>