<?xml version="1.0" encoding="UTF-8" standalone="no"?>
<svg
   xmlns:dc="http://purl.org/dc/elements/1.1/"
   xmlns:cc="http://creativecommons.org/ns#"
   xmlns:rdf="http://www.w3.org/1999/02/22-rdf-syntax-ns#"
   xmlns:svg="http://www.w3.org/2000/svg"
   xmlns="http://www.w3.org/2000/svg"
   viewBox="0 0 704.14667 203.33333"
   height="203.33333"
   width="704.14667"
   xml:space="preserve"
   id="svg2"
   version="1.1"><metadata
     id="metadata8"><rdf:RDF><cc:Work
         rdf:about=""><dc:format>image/svg+xml</dc:format><dc:type
           rdf:resource="http://purl.org/dc/dcmitype/StillImage" /></cc:Work></rdf:RDF></metadata><defs
     id="defs6" /><g
     transform="matrix(1.3333333,0,0,-1.3333333,0,203.33333)"
     id="g10"><g
       transform="scale(0.1)"
       id="g12"><path
         id="path14"
         style="fill:#27409b;fill-opacity:1;fill-rule:nonzero;stroke:none"
         d="m 1069.99,350.641 v 542.757 c -4.57,104.403 -54.38,145.732 -161.482,145.732 -158.18,0 -192.082,-73.06 -192.082,-220.13 V 350.641 H 537.246 V 893.398 C 532.738,997.801 491.418,1039.13 384.613,1039.13 226.43,1039.13 195.309,966.07 195.309,819 V 350.641 H 0 v 842.319 l 189.234,6.67 v -53.1 h 6.075 c 123.007,50.4 161.179,61.06 255.836,57.98 102.296,-3.61 203.328,-57.98 217.648,-94.88 h 6.148 c 40.582,48.15 173.411,105.6 281.793,99.45 192.076,-10.65 292.506,-92.48 292.506,-296.713 V 350.641 h -179.25" /><path
         id="path16"
         style="fill:#27409b;fill-opacity:1;fill-rule:nonzero;stroke:none"
         d="m 1496.52,605.648 c 0,-117.296 128.11,-116.328 183.68,-116.328 23.86,0 185.04,0 185.04,118.664 0,116.7 -94.06,116.016 -190.13,116.016 -99.61,0 -178.59,0 -178.59,-118.352 m -195.46,0 c 0,199.321 105.31,277.997 306.84,277.997 99.23,0 174.07,-1.797 253.05,-24.075 h 10.96 c -10.04,140.407 -2.99,179.86 -190.74,176.18 -173.4,-3.37 -153.51,-20.47 -153.51,-127.949 h -195.47 c 0,242.029 162.75,290.039 348.98,290.039 260.42,0 369.09,-48.01 369.09,-326.649 v -520.55 h -184.65 l -3.08,23.847 h -4.64 C 1737.65,341.27 1730.3,328.672 1635.66,326.57 c -4.51,-0.07 -9.01,-0.148 -13.58,-0.148 -152.04,0 -321.02,60.976 -321.02,279.226" /><path
         id="path18"
         style="fill:#27409b;fill-opacity:1;fill-rule:nonzero;stroke:none"
         d="m 4727.55,605.648 c 0,-117.296 127.91,-116.328 183.42,-116.328 24.14,0 185.08,0 185.08,118.664 0,116.7 -94.06,116.016 -190.22,116.016 -99.23,0 -178.28,0 -178.28,-118.352 m -195.39,0 c 0,199.321 105.04,277.997 306.47,277.997 99.57,0 174.08,-1.797 253.1,-24.075 h 11.02 c -9.75,140.407 -3.09,179.86 -190.8,176.18 -173.4,-3.37 -153.58,-20.47 -153.58,-127.949 h -195.41 c 0,242.029 163.05,290.039 348.99,290.039 260.74,0 369.12,-48.01 369.12,-326.649 v -520.55 h -184.73 l -2.77,23.847 h -4.84 c -120.36,-33.218 -127.62,-45.816 -222.27,-47.918 -4.51,-0.07 -9,-0.148 -13.57,-0.148 -152.11,0 -320.73,60.976 -320.73,279.226" /><path
         id="path20"
         style="fill:#27409b;fill-opacity:1;fill-rule:nonzero;stroke:none"
         d="m 2307.6,790.609 c 0,-188.406 0,-297.308 173.7,-297.308 195.39,0 195.39,99.527 195.39,297.308 0,177.336 -26.25,248.521 -195.39,248.521 -134.92,0 -173.7,-39.755 -173.7,-248.521 m -166.65,-469.89 h 182.86 c 0,-113.789 6.05,-159.02 152.39,-157.199 153.54,1.871 206.94,5.23 206.94,147.441 v 61.73 h -4.57 c -69.02,-23.769 -155.11,-37.261 -254.63,-37.261 -238.45,0.289 -311.72,162.371 -311.72,405.972 0,254.899 52.79,460.708 311.72,461.008 114.82,0.3 192.89,-13.13 254.63,-44.63 h 6.05 v 33.38 h 187.76 V 352.219 C 2876.13,95.1992 2779.29,6.67969 2481.3,0.238281 2474.71,0.0820313 2468.03,0 2461.66,0 2206.35,0 2108.48,111.449 2140.95,320.719" /><path
         id="path22"
         style="fill:#27409b;fill-opacity:1;fill-rule:nonzero;stroke:none"
         d="m 3308.06,1028.1 c -144.98,0 -179.78,-10.72 -179.78,-157.881 h 364.43 c 0,148.291 -32.09,158.101 -133.07,158.101 -15.58,0 -32.69,-0.22 -51.58,-0.22 m -384.1,-264.334 c 0,241.984 48.3,440.144 384.1,432.864 364.36,0 380.18,-134.92 380.18,-497.298 h -568.58 c 4.34,-174.98 1.49,-199.051 182.54,-204.23 187.81,-3.383 197.87,19.187 193.28,146.859 38.4,1.187 192.76,0 192.76,0 8.32,-293.039 -147.52,-306.852 -380.18,-306.852 -311.72,0 -384.1,107.411 -384.1,428.657" /><path
         id="path24"
         style="fill:#27409b;fill-opacity:1;fill-rule:nonzero;stroke:none"
         d="m 3945.05,790.609 c 0,-197.781 -13.43,-297.308 186.86,-297.308 178.28,0 183.2,108.902 183.2,297.308 0,208.766 -48.26,235.921 -183.2,235.921 -169.12,0 -186.86,-58.585 -186.86,-235.921 m -1.5,-416.121 h -3.34 l -0.9,-24.75 H 3748.76 V 1525.03 h 187.82 v -376.7 h 7.61 c 79.98,31.51 163.32,53.78 245.14,47.33 259.18,-20.1 311.72,-161.48 311.72,-405.051 0,-254.629 -12.25,-446.339 -311.72,-460.07 -12.46,-0.59 -24.39,-0.828 -35.92,-0.828 -94.8,0 -159.49,18.461 -209.86,44.777" /></g></g></svg>